HIERARCHY
ROOT Hips
{
	OFFSET 0.000000 0.000000 0.000000
	CHANNELS 6 Xposition Yposition Zposition Zrotation Yrotation Xrotation 
	JOINT LHipJoint
	{
		OFFSET 0.000000 0.000000 0.000000
		CHANNELS 3 Zrotation Yrotation Xrotation
		JOINT LeftUpLeg
		{
			OFFSET 1.363060 -1.794630 0.839290
			CHANNELS 3 Zrotation Yrotation Xrotation
			JOINT LeftLeg
			{
				OFFSET 2.448110 -6.726130 0.000000
				CHANNELS 3 Zrotation Yrotation Xrotation
				JOINT LeftFoot
				{
					OFFSET 2.562200 -7.039590 0.000000
					CHANNELS 3 Zrotation Yrotation Xrotation
					JOINT LeftToeBase
					{
						OFFSET 0.157640 -0.433110 2.322550
						CHANNELS 3 Zrotation Yrotation Xrotation
						End Site
						{
							OFFSET 0.000000 0.000000 0.000000
						}
					}
				}
			}
		}
	}
	JOINT RHipJoint
	{
		OFFSET 0.000000 0.000000 0.000000
		CHANNELS 3 Zrotation Yrotation Xrotation
		JOINT RightUpLeg
		{
			OFFSET -1.305520 -1.794630 0.839290
			CHANNELS 3 Zrotation Yrotation Xrotation
			JOINT RightLeg
			{
				OFFSET -2.542530 -6.985550 0.000000
				CHANNELS 3 Zrotation Yrotation Xrotation
				JOINT RightFoot
				{
					OFFSET -2.568260 -7.056230 0.000000
					CHANNELS 3 Zrotation Yrotation Xrotation
					JOINT RightToeBase
					{
						OFFSET -0.164730 -0.452590 2.363150
						CHANNELS 3 Zrotation Yrotation Xrotation
						End Site
						{
							OFFSET 0.000000 0.000000 0.000000
						}
					}
				}
			}
		}
	}
	JOINT LowerBack
	{
		OFFSET 0.000000 0.000000 0.000000
		CHANNELS 3 Zrotation Yrotation Xrotation
		JOINT Spine
		{
			OFFSET 0.028270 2.035590 -0.193380
			CHANNELS 3 Zrotation Yrotation Xrotation
			JOINT Spine1
			{
				OFFSET 0.056720 2.048850 -0.042750
				CHANNELS 3 Zrotation Yrotation Xrotation
				JOINT Neck
				{
					OFFSET 0.000000 0.000000 0.000000
					CHANNELS 3 Zrotation Yrotation Xrotation
					JOINT Neck1
					{
						OFFSET -0.054170 1.746240 0.172020
						CHANNELS 3 Zrotation Yrotation Xrotation
						JOINT Head
						{
							OFFSET 0.104070 1.761360 -0.123970
							CHANNELS 3 Zrotation Yrotation Xrotation
							End Site
							{
								OFFSET 0.000000 0.000000 0.000000
							}
						}
					}
				}
				JOINT LeftShoulder
				{
					OFFSET 0.000000 0.000000 0.000000
					CHANNELS 3 Zrotation Yrotation Xrotation
					JOINT LeftArm
					{
						OFFSET 3.362410 1.200890 -0.311210
						CHANNELS 3 Zrotation Yrotation Xrotation
						JOINT LeftForeArm
						{
							OFFSET 4.983000 -0.000000 -0.000000
							CHANNELS 3 Zrotation Yrotation Xrotation
							JOINT LeftHand
							{
								OFFSET 3.483560 -0.000000 -0.000000
								CHANNELS 3 Zrotation Yrotation Xrotation
								JOINT LeftFingerBase
								{
									OFFSET 0.000000 0.000000 0.000000
									CHANNELS 3 Zrotation Yrotation Xrotation
									JOINT LeftHandIndex1
									{
										OFFSET 0.715260 -0.000000 -0.000000
										CHANNELS 3 Zrotation Yrotation Xrotation
										End Site
										{
											OFFSET 0.000000 0.000000 0.000000
										}
									}
								}
								JOINT LThumb
								{
									OFFSET 0.000000 0.000000 0.000000
									CHANNELS 3 Zrotation Yrotation Xrotation
									End Site
									{
										OFFSET 0.000000 0.000000 0.000000
									}
								}
							}
						}
					}
				}
				JOINT RightShoulder
				{
					OFFSET 0.000000 0.000000 0.000000
					CHANNELS 3 Zrotation Yrotation Xrotation
					JOINT RightArm
					{
						OFFSET -3.136600 1.374050 -0.404650
						CHANNELS 3 Zrotation Yrotation Xrotation
						JOINT RightForeArm
						{
							OFFSET -5.241900 -0.000000 -0.000000
							CHANNELS 3 Zrotation Yrotation Xrotation
							JOINT RightHand
							{
								OFFSET -3.444170 -0.000000 -0.000000
								CHANNELS 3 Zrotation Yrotation Xrotation
								JOINT RightFingerBase
								{
									OFFSET 0.000000 0.000000 0.000000
									CHANNELS 3 Zrotation Yrotation Xrotation
									JOINT RightHandIndex1
									{
										OFFSET -0.622530 -0.000000 -0.000000
										CHANNELS 3 Zrotation Yrotation Xrotation
										End Site
										{
											OFFSET 0.000000 0.000000 0.000000
										}
									}
								}
								JOINT RThumb
								{
									OFFSET 0.000000 0.000000 0.000000
									CHANNELS 3 Zrotation Yrotation Xrotation
									End Site
									{
										OFFSET 0.000000 0.000000 0.000000
									}
								}
							}
						}
					}
				}
			}
		}
	}
}
MOTION
Frames: 11
Frame Time: 0.008333
0.903567 17.983749 23.281800 0.702951 -0.043981 0.486752 -0.840899 6.007879 5.342514 -21.782413 -9.399794 -6.062658 1.074653 7.076701 27.805294 0.015262 1.385729 -5.905454 0.000411 -0.133512 -0.366756 0.423235 -4.297302 3.155488 18.136742 10.186446 -33.074829 -5.400310 -13.088421 43.280353 2.206740 -9.428824 5.081585 -0.032484 1.160289 -3.189921 -2.358674 -1.088500 4.429600 3.892033 -1.459216 6.456432 3.003158 -0.767855 -6.985718 -5.210254 -3.590281 -14.314153 2.327799 -3.941526 17.481017 -0.294018 -1.718935 8.432861 -7.044610 2.503132 -1.192527 -73.868036 -3.495009 28.861059 15.771687 -25.917033 -3.714118 -0.223112 -0.710546 -0.711191 26.161642 29.640544 14.081305 -7.125000 0.000000 0.000000 -6.059701 63.063571 -2.668802 11.038335 -2.128199 -2.702754 74.766100 -2.289709 11.165688 -11.045747 23.104182 -2.701912 0.887213 -0.324666 5.636728 -15.071900 20.982650 -5.896493 7.125000 0.000000 0.000000 8.031510 -8.251199 6.865238
0.899556 17.988294 23.367859 0.768763 0.041564 0.578103 -0.873474 6.020904 5.379146 -21.807397 -9.380064 -5.758025 1.018189 6.977985 27.526317 -0.017209 1.468029 -5.802100 0.003112 -0.279841 -0.768885 0.503465 -4.276819 3.112800 17.938487 10.265737 -33.025732 -4.961147 -12.691419 41.595206 2.339310 -9.883757 5.481986 -0.034485 1.193649 -3.281804 -2.455761 -1.139735 4.450206 3.910352 -1.531882 6.425479 3.066237 -0.805774 -7.016572 -5.264243 -3.598208 -14.366066 2.434182 -3.949811 17.461773 -0.254956 -1.715750 8.437128 -7.043376 2.501600 -1.191253 -73.713418 -3.771864 28.819347 15.887439 -26.079849 -3.761285 -0.215554 -0.728315 -0.592344 25.847351 30.938156 14.397990 -7.125000 0.000000 0.000000 -7.335297 64.317235 -3.484878 11.037747 -2.128047 -2.706726 74.799444 -2.426029 11.137382 -11.060848 23.133892 -2.712296 0.883732 -0.320195 5.608817 -14.963498 20.884552 -5.826923 7.125000 0.000000 0.000000 8.098146 -8.367198 6.904498
0.895567 17.999152 23.454006 0.778945 0.116977 0.672638 -0.907469 6.036119 5.417237 -21.765606 -9.344507 -5.467771 0.956613 6.875815 27.225212 -0.070882 1.610968 -5.628063 0.007786 -0.548734 -1.507842 0.591574 -4.256010 3.069789 17.803887 10.293976 -32.951690 -4.513518 -12.268763 39.852837 2.471071 -10.340351 5.938253 -0.041942 1.319749 -3.629106 -2.504810 -1.196271 4.502884 3.959064 -1.607618 6.386323 3.119676 -0.845702 -7.073415 -5.279568 -3.606390 -14.517116 2.484719 -3.947169 17.507034 -0.237427 -1.709016 8.475081 -7.045729 2.503757 -1.189365 -73.570046 -4.088350 28.739009 15.978200 -26.208587 -3.795793 -0.206714 -0.750726 -0.377393 25.405627 32.558969 14.753083 -7.125000 0.000000 0.000000 -9.049661 65.860759 -4.593230 11.033662 -2.126103 -2.709381 74.818050 -2.564045 11.173241 -11.093417 23.192604 -2.730860 0.879978 -0.313471 5.487527 -14.826489 20.774543 -5.743005 7.125000 0.000000 0.000000 8.183010 -8.499363 6.956863
0.891400 18.006000 23.542070 0.712090 0.116912 0.748177 -0.944082 6.057668 5.463782 -21.638084 -9.258763 -5.188084 0.893653 6.775021 26.917492 -0.127427 1.775679 -5.481445 0.015460 -0.778051 -2.138456 0.692650 -4.240016 3.023670 17.713709 10.502815 -32.780250 -4.077598 -11.801746 38.059529 2.620365 -10.866057 6.498556 -0.041162 1.309121 -3.599805 -2.471911 -1.228644 4.507168 4.022367 -1.643667 6.385122 3.132655 -0.868115 -7.080294 -5.189357 -3.593744 -14.737512 2.412187 -3.915012 17.612650 -0.269144 -1.692747 8.540343 -7.047400 2.506228 -1.187193 -73.408058 -4.342993 28.833527 16.031035 -26.280370 -3.821243 -0.200865 -0.744906 -0.792640 25.378321 32.147825 14.581369 -7.125000 0.000000 0.000000 -8.754574 65.434049 -4.350561 11.025528 -2.125795 -2.707878 74.864224 -2.622130 11.040903 -11.065387 23.153287 -2.719161 0.878604 -0.320886 5.562897 -14.744645 20.892592 -5.743613 7.125000 0.000000 0.000000 8.241146 -8.383279 7.026733
0.887156 18.011856 23.630601 0.627553 0.098164 0.819448 -0.981368 6.080700 5.512376 -21.490666 -9.160417 -4.911037 0.830296 6.674392 26.607785 -0.184509 1.945078 -5.341521 0.023864 -0.997276 -2.741436 0.796903 -4.225224 2.976756 17.632898 10.756514 -32.584977 -3.644547 -11.323633 36.253323 2.773622 -11.407664 7.084287 -0.038298 1.263509 -3.474146 -2.420764 -1.254907 4.498683 4.089058 -1.669894 6.393150 3.136583 -0.886145 -7.074423 -5.073547 -3.575788 -14.973326 2.309677 -3.875497 17.732144 -0.312806 -1.674108 8.611791 -7.048887 2.508693 -1.184954 -73.241871 -4.581665 28.968998 16.075685 -26.339704 -3.844983 -0.195801 -0.732197 -1.357522 25.453184 31.242074 14.282079 -7.125000 0.000000 0.000000 -7.969682 64.527982 -3.779290 11.016419 -2.125921 -2.705435 74.916955 -2.661484 10.869125 -11.022933 23.090626 -2.700233 0.877828 -0.331687 5.685679 -14.677137 21.065461 -5.764956 7.125000 0.000000 0.000000 8.292157 -8.207410 7.100218
0.878514 18.015623 23.719296 0.679918 0.034284 0.936452 -1.023659 6.096423 5.560272 -21.466746 -9.008428 -4.643698 0.759037 6.551359 26.248157 -0.220155 2.034845 -5.205839 0.032434 -1.153648 -3.171822 0.904466 -4.214528 2.924549 17.363609 11.138946 -32.367922 -3.214529 -10.803666 34.378285 2.887564 -11.831410 7.689737 -0.024776 0.985377 -2.708867 -2.589226 -1.249666 4.357001 4.134899 -1.672533 6.401742 3.243542 -0.887241 -6.987929 -4.963764 -3.525005 -15.020116 2.197654 -3.811312 17.747655 -0.353485 -1.648565 8.623867 -7.047786 2.500400 -1.182921 -73.118752 -4.695833 28.901766 16.256307 -26.582542 -3.933625 -0.198485 -0.715580 -1.460681 25.722004 30.222806 14.039953 -7.125000 0.000000 0.000000 -6.983089 63.541389 -3.166154 11.008653 -2.130885 -2.712362 74.951065 -2.792051 10.885975 -11.020182 23.090596 -2.697687 0.879744 -0.336052 5.759120 -14.732604 21.159836 -5.812369 7.125000 0.000000 0.000000 8.259881 -8.102346 7.089255
0.870828 18.018644 23.808703 0.775814 0.005873 1.048723 -1.065394 6.111066 5.606572 -21.493026 -8.874518 -4.356686 0.691211 6.429965 25.901662 -0.247915 2.097820 -5.085269 0.040723 -1.300285 -3.575461 1.010107 -4.204230 2.874059 17.042466 11.461447 -32.147693 -2.787006 -10.281283 32.502425 2.989513 -12.219776 8.293307 -0.015330 0.794726 -2.184260 -2.774767 -1.253078 4.217636 4.156456 -1.687653 6.406293 3.348012 -0.894590 -6.903381 -4.881475 -3.483039 -15.017638 2.118612 -3.763274 17.731589 -0.382050 -1.629712 8.619049 -7.045202 2.490566 -1.181043 -72.994625 -4.813425 28.848595 16.427521 -26.812861 -4.017830 -0.201929 -0.700402 -1.551273 26.021230 29.282909 13.843891 -7.125000 0.000000 0.000000 -6.024543 62.642990 -2.591071 11.003988 -2.136468 -2.719865 74.984282 -2.920141 10.885433 -11.013753 23.084686 -2.695205 0.880419 -0.336134 5.814988 -14.765102 21.151884 -5.822995 7.125000 0.000000 0.000000 8.238372 -8.107383 7.069517
0.866728 18.018865 23.900778 1.034952 0.110466 1.143240 -1.105043 6.121657 5.646885 -21.707556 -8.808408 -3.995901 0.636266 6.314717 25.604411 -0.246103 2.060330 -5.021371 0.047957 -1.410413 -3.878801 1.108538 -4.195422 2.830006 16.526875 11.559206 -31.915563 -2.368837 -9.749840 30.623479 3.046483 -12.475467 8.889831 -0.021173 0.932122 -2.562169 -3.024353 -1.288938 4.086959 4.086944 -1.749573 6.395688 3.443149 -0.925389 -6.826127 -4.902288 -3.474139 -14.830403 2.163248 -3.775790 17.597107 -0.365189 -1.635945 8.550879 -7.037055 2.474946 -1.179748 -72.866715 -4.943857 28.848147 16.563458 -26.996230 -4.085391 -0.208224 -0.690622 -1.594736 26.434478 28.640659 13.820574 -7.125000 0.000000 0.000000 -5.171173 62.075320 -2.158682 11.010945 -2.144375 -2.729525 75.014157 -3.038940 10.819667 -10.993531 23.056730 -2.692964 0.876441 -0.320153 5.804958 -14.711462 20.760205 -5.695671 7.125000 0.000000 0.000000 8.257236 -8.525304 7.016874
0.864278 18.018399 23.992555 1.269258 0.233122 1.223261 -1.143914 6.136673 5.690109 -21.892094 -8.756524 -3.615542 0.581615 6.201253 25.309850 -0.227230 1.965268 -4.968390 0.048656 -1.420552 -3.906704 1.209321 -4.189459 2.787784 16.031003 11.641954 -31.652284 -1.965263 -9.209786 28.752834 3.106771 -12.753875 9.510697 -0.031021 1.120054 -3.079396 -3.208109 -1.329043 3.994494 4.012814 -1.812032 6.396248 3.497333 -0.958198 -6.765426 -4.977718 -3.488717 -14.649184 2.278076 -3.817294 17.425367 -0.323773 -1.652947 8.473942 -7.027844 2.461354 -1.179128 -72.730507 -5.112416 28.910093 16.665098 -27.132397 -4.134979 -0.209071 -0.685592 -1.732920 26.602194 28.326869 13.789387 -7.125000 0.000000 0.000000 -4.793656 61.788678 -1.961090 11.019372 -2.150675 -2.738189 75.047272 -3.139996 10.727097 -10.965188 23.013944 -2.684988 0.875234 -0.306772 5.836012 -14.737270 20.427131 -5.614487 7.125000 0.000000 0.000000 8.226348 -8.873174 6.933048
0.864167 18.016959 24.083910 1.468347 0.381392 1.282722 -1.181680 6.157963 5.737461 -22.034099 -8.724814 -3.207424 0.527383 6.090318 25.019101 -0.184161 1.788558 -4.930892 0.040086 -1.288888 -3.543987 1.313440 -4.187533 2.748156 15.563097 11.703414 -31.344831 -1.582383 -8.657518 26.893961 3.171765 -13.064498 10.166083 -0.046546 1.379654 -3.794202 -3.298506 -1.375169 3.956217 3.932136 -1.875257 6.412642 3.493437 -0.993856 -6.728199 -5.130603 -3.536592 -14.476498 2.492447 -3.899909 17.200789 -0.247534 -1.685223 8.384570 -7.017125 2.450637 -1.179463 -72.582531 -5.335046 29.060527 16.718098 -27.201623 -4.159076 -0.202194 -0.687299 -2.005437 26.421701 28.478896 13.747039 -7.125000 0.000000 0.000000 -5.090986 61.900587 -2.096482 11.029885 -2.154697 -2.745437 75.084985 -3.215889 10.596511 -10.925330 22.950128 -2.668879 0.877955 -0.297077 5.925332 -14.875748 20.177170 -5.598739 7.125000 0.000000 0.000000 8.124901 -9.121700 6.805001
0.859992 18.015280 24.173215 1.512551 0.471309 1.399294 -1.218857 6.180450 5.783465 -21.987384 -8.641509 -2.934001 0.464535 5.980089 24.696377 -0.173887 1.720479 -4.812393 0.048808 -1.406723 -3.868903 1.423412 -4.188679 2.702883 15.219240 11.982742 -31.037363 -1.228522 -8.094327 25.091945 3.264225 -13.396646 10.547358 -0.065332 1.635069 -4.498440 -3.338676 -1.422950 3.904581 3.962050 -1.936722 6.408143 3.520255 -1.027201 -6.698298 -5.241698 -3.568934 -14.458524 2.630861 -3.941340 17.097458 -0.195415 -1.700105 8.354692 -7.014236 2.447234 -1.179001 -72.486881 -5.566119 29.085717 16.780490 -27.281268 -4.186704 -0.193394 -0.689473 -2.193481 26.101955 28.715262 13.655799 -7.125000 0.000000 0.000000 -5.606663 62.063309 -2.332883 11.032525 -2.154057 -2.747507 75.092298 -3.263251 10.502786 -10.887591 22.892811 -2.654075 0.878878 -0.292544 6.046748 -14.944047 20.024919 -5.582887 7.125000 0.000000 0.000000 8.073649 -9.274640 6.735966
